<mxfile host="app.diagrams.net" modified="2025-03-29T10:00:00.000Z" agent="Mozilla/5.0" etag="123456789" version="21.0.0" type="device">
  <diagram id="smart-agriculture-architecture" name="Three-Layer IoT Architecture">
    <mxGraphModel dx="1400" dy="800" grid="1" gridSize="10" guides="1" tooltips="1" connect="1" arrows="1" fold="1" page="1" pageScale="1" pageWidth="850" pageHeight="1100" math="0" shadow="0">
      <root>
        <mxCell id="0" />
        <mxCell id="1" parent="0" />
        
        <!-- Application Layer Rectangle -->
        <mxCell id="2" value="Application Layer" style="rounded=1;whiteSpace=wrap;html=1;fillColor=#dae8fc;strokeColor=#6c8ebf;fontSize=14;fontStyle=1;verticalAlign=top;align=center;spacingTop=5;" vertex="1" parent="1">
          <mxGeometry x="120" y="120" width="600" height="120" as="geometry" />
        </mxCell>
        
        <!-- Connectivity Layer Rectangle -->
        <mxCell id="3" value="Connectivity Layer" style="rounded=1;whiteSpace=wrap;html=1;fillColor=#d5e8d4;strokeColor=#82b366;fontSize=14;fontStyle=1;verticalAlign=top;align=center;spacingTop=5;" vertex="1" parent="1">
          <mxGeometry x="120" y="260" width="600" height="120" as="geometry" />
        </mxCell>
        
        <!-- Things Layer Rectangle -->
        <mxCell id="4" value="Things Layer" style="rounded=1;whiteSpace=wrap;html=1;fillColor=#ffe6cc;strokeColor=#d79b00;fontSize=14;fontStyle=1;verticalAlign=top;align=center;spacingTop=5;" vertex="1" parent="1">
          <mxGeometry x="120" y="400" width="600" height="120" as="geometry" />
        </mxCell>
        
        <!-- Application Layer Components -->
        <mxCell id="5" value="User&lt;br&gt;Dashboard" style="rounded=1;whiteSpace=wrap;html=1;fillColor=#dae8fc;strokeColor=#6c8ebf;" vertex="1" parent="1">
          <mxGeometry x="150" y="160" width="120" height="60" as="geometry" />
        </mxCell>
        
        <mxCell id="6" value="Data&lt;br&gt;Analytics" style="rounded=1;whiteSpace=wrap;html=1;fillColor=#dae8fc;strokeColor=#6c8ebf;" vertex="1" parent="1">
          <mxGeometry x="290" y="160" width="120" height="60" as="geometry" />
        </mxCell>
        
        <mxCell id="7" value="Alerting&lt;br&gt;System" style="rounded=1;whiteSpace=wrap;html=1;fillColor=#dae8fc;strokeColor=#6c8ebf;" vertex="1" parent="1">
          <mxGeometry x="430" y="160" width="120" height="60" as="geometry" />
        </mxCell>
        
        <mxCell id="8" value="Irrigation&lt;br&gt;Control" style="rounded=1;whiteSpace=wrap;html=1;fillColor=#dae8fc;strokeColor=#6c8ebf;" vertex="1" parent="1">
          <mxGeometry x="570" y="160" width="120" height="60" as="geometry" />
        </mxCell>
        
        <!-- Connectivity Layer Components -->
        <mxCell id="9" value="Cloud&lt;br&gt;Platform" style="rounded=1;whiteSpace=wrap;html=1;fillColor=#d5e8d4;strokeColor=#82b366;" vertex="1" parent="1">
          <mxGeometry x="150" y="300" width="120" height="60" as="geometry" />
        </mxCell>
        
        <mxCell id="10" value="LoRaWAN&lt;br&gt;Gateway" style="rounded=1;whiteSpace=wrap;html=1;fillColor=#d5e8d4;strokeColor=#82b366;" vertex="1" parent="1">
          <mxGeometry x="290" y="300" width="120" height="60" as="geometry" />
        </mxCell>
        
        <mxCell id="11" value="Edge&lt;br&gt;Computing" style="rounded=1;whiteSpace=wrap;html=1;fillColor=#d5e8d4;strokeColor=#82b366;" vertex="1" parent="1">
          <mxGeometry x="430" y="300" width="120" height="60" as="geometry" />
        </mxCell>
        
        <mxCell id="12" value="Security&lt;br&gt;Services" style="rounded=1;whiteSpace=wrap;html=1;fillColor=#d5e8d4;strokeColor=#82b366;" vertex="1" parent="1">
          <mxGeometry x="570" y="300" width="120" height="60" as="geometry" />
        </mxCell>
        
        <!-- Things Layer Components -->
        <mxCell id="13" value="Soil&lt;br&gt;Moisture&lt;br&gt;Sensor" style="rounded=1;whiteSpace=wrap;html=1;fillColor=#ffe6cc;strokeColor=#d79b00;" vertex="1" parent="1">
          <mxGeometry x="150" y="440" width="120" height="60" as="geometry" />
        </mxCell>
        
        <mxCell id="14" value="Temperature&lt;br&gt;Sensor" style="rounded=1;whiteSpace=wrap;html=1;fillColor=#ffe6cc;strokeColor=#d79b00;" vertex="1" parent="1">
          <mxGeometry x="290" y="440" width="120" height="60" as="geometry" />
        </mxCell>
        
        <mxCell id="15" value="Humidity&lt;br&gt;Sensor" style="rounded=1;whiteSpace=wrap;html=1;fillColor=#ffe6cc;strokeColor=#d79b00;" vertex="1" parent="1">
          <mxGeometry x="430" y="440" width="120" height="60" as="geometry" />
        </mxCell>
        
        <mxCell id="16" value="Irrigation&lt;br&gt;Valve" style="rounded=1;whiteSpace=wrap;html=1;fillColor=#ffe6cc;strokeColor=#d79b00;" vertex="1" parent="1">
          <mxGeometry x="570" y="440" width="120" height="60" as="geometry" />
        </mxCell>
      </root>
    </mxGraphModel>
  </diagram>
</mxfile>